<?xml version="1.0" encoding="UTF-8" standalone="no"?>
<svg
   xmlns:dc="http://purl.org/dc/elements/1.1/"
   xmlns:cc="http://creativecommons.org/ns#"
   xmlns:rdf="http://www.w3.org/1999/02/22-rdf-syntax-ns#"
   xmlns:svg="http://www.w3.org/2000/svg"
   xmlns="http://www.w3.org/2000/svg"
   xmlns:sodipodi="http://sodipodi.sourceforge.net/DTD/sodipodi-0.dtd"
   xmlns:inkscape="http://www.inkscape.org/namespaces/inkscape"
   version="1.1"
   id="svg16992"
   viewBox="0 0 742.03877 1512.6454"
   height="426.90216mm"
   width="209.41983mm"
   inkscape:version="0.91 r13725"
   sodipodi:docname="plataforma_final.svg">
  <sodipodi:namedview
     pagecolor="#ffffff"
     bordercolor="#666666"
     borderopacity="1"
     objecttolerance="10"
     gridtolerance="10"
     guidetolerance="10"
     inkscape:pageopacity="0"
     inkscape:pageshadow="2"
     inkscape:window-width="1362"
     inkscape:window-height="729"
     id="namedview7"
     showgrid="false"
     fit-margin-top="0"
     fit-margin-left="0"
     fit-margin-right="0"
     fit-margin-bottom="0"
     inkscape:zoom="0.26672421"
     inkscape:cx="277.92144"
     inkscape:cy="667.80628"
     inkscape:window-x="0"
     inkscape:window-y="18"
     inkscape:window-maximized="0"
     inkscape:current-layer="svg16992" />
  <defs
     id="defs16994" />
  <metadata
     id="metadata16997">
    <rdf:RDF>
      <cc:Work
         rdf:about="">
        <dc:format>image/svg+xml</dc:format>
        <dc:type
           rdf:resource="http://purl.org/dc/dcmitype/StillImage" />
        <dc:title></dc:title>
      </cc:Work>
    </rdf:RDF>
  </metadata>
  <g
     id="layer1"
     transform="translate(-1.0278689,756.14947)">
    <path
       id="rect4169"
       d="m 41.840217,296.6606 c -21.757364,0 -39.2734391,17.5161 -39.2734391,39.2735 l 0,380.4941 c 0,21.7574 17.5160751,39.2734 39.2734391,39.2734 l 660.416013,0 c 21.75736,0 39.27151,-17.516 39.27148,-39.2734 l 0,-380.4941 c 0,-21.7574 -17.51412,-39.2735 -39.27148,-39.2735 l -660.416013,0 z M 90.50428,398.1587 a 8.4485121,8.4485121 0 0 1 8.447265,8.4472 8.4485121,8.4485121 0 0 1 -8.447265,8.4493 8.4485121,8.4485121 0 0 1 -8.449219,-8.4493 8.4485121,8.4485121 0 0 1 8.449219,-8.4472 z m 288.09375,0.1074 a 8.4485121,8.4485121 0 0 1 8.44922,8.4492 8.4485121,8.4485121 0 0 1 -8.44922,8.4492 8.4485121,8.4485121 0 0 1 -8.44922,-8.4492 8.4485121,8.4485121 0 0 1 8.44922,-8.4492 z M 263.70936,636.7563 a 8.4485121,8.4485121 0 0 1 8.44921,8.4492 8.4485121,8.4485121 0 0 1 -8.44921,8.4493 8.4485121,8.4485121 0 0 1 -8.44727,-8.4493 8.4485121,8.4485121 0 0 1 8.44727,-8.4492 z m -173.20508,0.5508 a 8.4485121,8.4485121 0 0 1 8.447265,8.4473 8.4485121,8.4485121 0 0 1 -8.447265,8.4492 8.4485121,8.4485121 0 0 1 -8.449219,-8.4492 8.4485121,8.4485121 0 0 1 8.449219,-8.4473 z"
       style="fill:#ffffff;fill-opacity:1;stroke:#ff0000;stroke-width:1.5888449;stroke-opacity:1"
       inkscape:connector-curvature="0" />
  </g>
  <g
     id="layer1-3"
     transform="translate(-1.0275,-0.01773435)">
    <path
       id="rect4136-2"
       d="M 35.007812,0.61523438 C 16.514012,0.61523438 1.625,15.502334 1.625,33.996094 l 0,984.367206 c 0,18.4938 14.889013,33.3828 33.382812,33.3828 l 674.078128,0 c 18.4937,0 33.38281,-14.889 33.38281,-33.3828 l 0,-984.367206 c 0,-18.49376 -14.88911,-33.38085968 -33.38281,-33.38085962 l -674.078128,0 z M 83.011719,10.310547 a 52.076553,52.076553 0 0 1 52.076171,52.078125 52.076553,52.076553 0 0 1 -17.29297,38.679688 l 0,48.48828 -69.566404,0 0,-48.49414 A 52.076553,52.076553 0 0 1 30.935547,62.388672 52.076553,52.076553 0 0 1 83.011719,10.310547 Z m 578.072261,0 a 52.076553,52.076553 0 0 1 52.07618,52.078125 52.076553,52.076553 0 0 1 -17.29297,38.679688 l 0,48.48828 -69.56641,0 0,-48.49414 A 52.076553,52.076553 0 0 1 609.00781,62.388672 52.076553,52.076553 0 0 1 661.08398,10.310547 Z M 19.070312,56.375 a 6.0303855,6.0113811 0 0 1 6.03125,6.011719 6.0303855,6.0113811 0 0 1 -6.03125,6.011719 6.0303855,6.0113811 0 0 1 -6.029296,-6.011719 6.0303855,6.0113811 0 0 1 6.029296,-6.011719 z m 127.880858,0 a 6.0303855,6.0113811 0 0 1 6.03125,6.011719 6.0303855,6.0113811 0 0 1 -6.03125,6.011719 6.0303855,6.0113811 0 0 1 -6.03125,-6.011719 6.0303855,6.0113811 0 0 1 6.03125,-6.011719 z m 450.19141,0 a 6.0303855,6.0113811 0 0 1 6.03125,6.011719 6.0303855,6.0113811 0 0 1 -6.03125,6.011719 6.0303855,6.0113811 0 0 1 -6.0293,-6.011719 6.0303855,6.0113811 0 0 1 6.0293,-6.011719 z m 127.88086,0 a 6.0303855,6.0113811 0 0 1 6.03125,6.011719 6.0303855,6.0113811 0 0 1 -6.03125,6.011719 6.0303855,6.0113811 0 0 1 -6.0293,-6.011719 6.0303855,6.0113811 0 0 1 6.0293,-6.011719 z m -609.86719,222.96484 513.7793,0 c 4.6689,0 8.42773,3.7588 8.42773,8.42774 0,4.66895 -3.75883,8.42773 -8.42773,8.42773 l -513.7793,0 c -4.669,0 -8.42773,-3.75878 -8.42773,-8.42773 0,-4.66894 3.75873,-8.42774 8.42773,-8.42774 z M 41.109375,947.92383 c 3.784035,0 6.830078,2.9262 6.830078,6.56055 l 0,80.27542 c 0,3.6343 -3.046043,6.5605 -6.830078,6.5605 -3.784035,0 -6.830078,-2.9262 -6.830078,-6.5605 l 0,-80.27542 c 0,-3.63436 3.046043,-6.56055 6.830078,-6.56055 z m 661.876955,0 c 3.78403,0 6.83008,2.9262 6.83008,6.56055 l 0,80.27542 c 0,3.6343 -3.04605,6.5605 -6.83008,6.5605 -3.78404,0 -6.83203,-2.9262 -6.83203,-6.5605 l 0,-80.27542 c 0,-3.63435 3.04799,-6.56055 6.83203,-6.56055 z m -382.13672,24.30078 102.39258,0 c 13.126,0 23.69336,10.56736 23.69336,23.69336 0,13.12603 -10.56736,23.69333 -23.69336,23.69333 l -102.39258,0 c -13.126,0 -23.69141,-10.5673 -23.69141,-23.69333 0,-13.126 10.56541,-23.69336 23.69141,-23.69336 z"
       style="fill:none;fill-opacity:1;stroke:#ff0000;stroke-width:1.19500005;stroke-miterlimit:4;stroke-dasharray:none;stroke-opacity:1"
       inkscape:connector-curvature="0" />
  </g>
  <rect
     style="fill:#ffffff;fill-opacity:1;stroke:#ff0000;stroke-width:0.94655621;stroke-miterlimit:4;stroke-dasharray:none;stroke-opacity:1"
     id="rect4277"
     width="15.518857"
     height="93.783211"
     x="32.219482"
     y="1069.4515"
     rx="0"
     ry="11.722901" />
  <rect
     style="fill:#ffffff;fill-opacity:1;stroke:#ff0000;stroke-width:0.95338106;stroke-miterlimit:4;stroke-dasharray:none;stroke-opacity:1"
     id="rect4277-6"
     width="15.512033"
     height="95.182335"
     x="694.18939"
     y="1069.7058"
     rx="0"
     ry="11.897792" />
</svg>
